<?xml version="1.0" encoding="iso-8859-1" ?><!DOCTYPE SVG PUBLIC "-//W3C//DTD SVG 1.1//EN" "http://www.w3.org/Graphics/SVG/1.1/DTD/svg11.dtd"><svg xmlns="http://www.w3.org/2000/svg" xmlns:xlink="http://www.w3.org/1999/xlink"><symbol viewBox="0 0 90 90" id="icon-facebook"><path d="M90 15c0-7.88-7.116-15-15-15H15C7.116 0 0 7.12 0 15v60c0 7.88 7.116 15 15 15h30V56H34V41h11v-5.844C45 25.076 52.568 16 61.875 16H74v15H61.875C60.548 31 59 32.61 59 35.024V41h15v15H59v34h16c7.884 0 15-7.12 15-15V15z"/></symbol><symbol viewBox="0 0 533.333 533.333" id="icon-twitter"><path d="M444.45 0H88.897C40.006 0 0 40.005 0 88.9v355.534c0 48.926 40.006 88.9 88.898 88.9h355.55c48.895 0 88.885-39.975 88.885-88.9V88.9c0-48.895-39.99-88.9-88.884-88.9zm-7.964 178.04c.17 3.823.255 7.67.255 11.535 0 117.82-88.133 253.682-249.3 253.682-49.482 0-95.54-14.767-134.316-40.062 6.854.826 13.83 1.247 20.9 1.247 41.054 0 78.834-14.257 108.82-38.17-38.34-.718-70.7-26.497-81.85-61.916 5.35 1.042 10.838 1.6 16.484 1.6 7.992 0 15.732-1.092 23.083-3.13-40.082-8.192-70.285-44.227-70.285-87.424 0-.376 0-.75.008-1.12 11.812 6.676 25.325 10.686 39.687 11.15-23.51-15.988-38.98-43.277-38.98-74.212 0-16.34 4.32-31.655 11.864-44.822 43.215 53.942 107.78 89.438 180.6 93.158-1.494-6.527-2.27-13.332-2.27-20.32 0-49.24 39.234-89.156 87.62-89.156 25.204 0 47.98 10.826 63.96 28.155 19.96-3.998 38.71-11.417 55.642-21.637-6.543 20.82-20.435 38.293-38.523 49.328 17.723-2.155 34.61-6.948 50.324-14.04-11.744 17.88-26.6 33.583-43.72 46.153z"/></symbol></svg>