<?xml version="1.0" encoding="iso-8859-1" ?><!DOCTYPE SVG PUBLIC "-//W3C//DTD SVG 1.1//EN" "http://www.w3.org/Graphics/SVG/1.1/DTD/svg11.dtd"><svg xmlns="http://www.w3.org/2000/svg" xmlns:xlink="http://www.w3.org/1999/xlink"><symbol viewBox="0 0 90 90" id="icon-facebook"><path d="M90 15.001C90 7.119 82.884 0 75 0H15C7.116 0 0 7.119 0 15.001v59.998C0 82.881 7.116 90 15.001 90H45V56H34V41h11v-5.844C45 25.077 52.568 16 61.875 16H74v15H61.875C60.548 31 59 32.611 59 35.024V41h15v15H59v34h16c7.884 0 15-7.119 15-15.001V15.001z"/></symbol><symbol viewBox="0 0 533.333 533.333" id="icon-twitter"><path d="M444.449 0H88.898C40.006 0 0 40.005 0 88.901v355.533c0 48.926 40.006 88.899 88.898 88.899h355.55c48.895 0 88.885-39.974 88.885-88.9V88.901C533.333 40.005 493.343 0 444.449 0zm-7.963 178.039c.171 3.824.255 7.671.255 11.536 0 117.819-88.134 253.682-249.302 253.682-49.481 0-95.539-14.767-134.315-40.062a174.637 174.637 0 0 0 20.901 1.247c41.053 0 78.833-14.257 108.819-38.169-38.341-.719-70.699-26.498-81.851-61.917a86.323 86.323 0 0 0 39.568-1.529c-40.083-8.193-70.286-44.228-70.286-87.425 0-.376 0-.75.008-1.121 11.812 6.677 25.325 10.687 39.687 11.151-23.511-15.988-38.98-43.277-38.98-74.212 0-16.339 4.32-31.655 11.864-44.822 43.215 53.942 107.779 89.438 180.601 93.158-1.495-6.527-2.27-13.332-2.27-20.32 0-49.239 39.233-89.156 87.619-89.156 25.204 0 47.98 10.826 63.96 28.155 19.959-3.998 38.711-11.417 55.642-21.637-6.543 20.821-20.435 38.293-38.523 49.328 17.723-2.155 34.611-6.948 50.324-14.039-11.744 17.878-26.6 33.582-43.721 46.152z"/></symbol></svg>